<?xml version="1.0" encoding="utf-8"?>
<!-- Generator: Adobe Illustrator 23.0.0, SVG Export Plug-In . SVG Version: 6.00 Build 0)  -->
<svg version="1.1" id="레이어_1" xmlns="http://www.w3.org/2000/svg" xmlns:xlink="http://www.w3.org/1999/xlink" x="0px"
	 y="0px" viewBox="0 0 1510.5 3000" style="enable-background:new 0 0 1510.5 3000;" xml:space="preserve">
<style type="text/css">
	.st0{fill:#FF2222;}
	.st1{fill:#FF2E2E;}
</style>
<path class="st0" d="M-704.9,753.6c-0.1,15,1.1,31.6-3.1,48c-10.2,39.5-38.3,62-80.9,64.4c-21.4,1.2-41.6-3.4-61-12.2
	c-25.7-11.7-48-28.4-68.9-47.2c-6.5-5.9-8.1-12.8-4.3-20.7c9.9-20.3,20.2-40.4,30-60.8c8.4-17.4,16.5-34.8,24.2-52.5
	c4.7-10.7,11.2-19.5,20.7-26.3c10.5-7.5,21.9-9.5,34.1-5.4c23,7.8,45.8,15.9,68.7,24.1c22.5,8.1,35.4,24.1,37.8,48
	C-706.5,726.1-705.9,739.1-704.9,753.6z"/>
<path class="st0" d="M-1270.1,1650.9c1.1-4.5,1.4-8.5,3.1-11.8c8.9-18.3,18-36.4,27.1-54.5c3-5.9,6.4-11.7,9.3-17.7
	c3.4-6.9,3.1-7.8-4.3-14.8c-2.1,3.5-4.3,6.7-6.1,10.1c-12.3,22.9-24.5,45.8-36.8,68.6c-2.4,4.4-4.9,8.7-7.9,12.7
	c-4.7,6.3-9,7.8-13.4,5.2c-4.6-2.6-5.4-6.8-2.1-14.1c4.4-9.7,9-19.3,14.1-28.7c12.4-22.8,25.2-45.4,37.8-68.1
	c4.2-7.6,4.1-7.7-3.3-13.2c-2.1,3.3-4.4,6.5-6.4,9.8c-12.5,20.9-24.9,41.8-37.3,62.6c-2,3.4-4.2,6.8-6.6,10c-2.5,3.2-5.5,6.8-10,4.4
	c-3.9-2-3.4-6.3-2.2-9.8c1.6-4.7,3.3-9.4,5.7-13.7c13-22.9,26.2-45.6,39.4-68.4c1.8-3.1,3.5-6.3,5.5-9.9c-5.8-6.6-12.8-8.3-20.7-6.7
	c-9.8,2-19.5,4.5-29.2,6.5c-12.8,2.6-18.3-0.1-24.8-12.6c3.6-2,7-4.5,10.8-5.9c12.6-4.5,22.5-12.6,31.6-22
	c17.2-17.6,34.6-35.1,52.3-52.3c3.4-3.3,8.1-6.2,12.6-7.4c13.3-3.5,23.2-11.3,30.9-22.2c18.7-26.4,37.4-52.7,56.1-79
	c2.1-2.9,4.3-5.7,7-9.2c3.3,4.7,1.7,8.8,0.9,12.2c-9.2,38.8-10.4,78.5-14,117.9c-1.3,14.4,0.4,28.5,5.1,42.3
	c7.5,22.1,4.2,42.8-10.1,61.3c-17.4,22.4-33.9,45.3-47,70.5c-3.3,6.4-8.1,12.2-12.8,17.8c-1.8,2.1-5.1,2.8-7.8,4.2
	c-0.6-0.5-1.2-1.1-1.8-1.6c1.3-3.6,2.3-7.2,3.9-10.7c3.4-7.2,7.2-14.3,10.5-21.5c3.6-8,3.1-8.9-6.6-13.7c-1.7,3-3.5,6.1-5.1,9.2
	c-8.9,17.9-17.7,35.8-26.6,53.6C-1254.5,1650.5-1258,1652.4-1270.1,1650.9z"/>
<path class="st0" d="M-1071,1116.1c-1.3-19.2-2.8-38.5-3.8-57.7c-0.8-17-5.3-32.7-15.2-46.7c-11.4-16-15.7-34.3-15.9-53.7
	c-0.4-40.5,12.7-76.5,37.3-108.3c10.2-13.2,23.3-22.8,39.1-28.4c16.3-5.8,32.8-11.1,49.2-16.5c1.3-0.4,2.6-0.7,3.9-0.9
	c10.4-1.6,15.5,2.3,15.2,12.8c-0.2,10.3-0.7,20.7-2.2,30.9c-9.2,61.9-25.5,121.9-51.8,178.6c-12,25.8-28.2,49.7-42.6,74.4
	c-3.3,5.6-7.1,11-10.7,16.5C-1069.3,1116.6-1070.1,1116.4-1071,1116.1z"/>
<path class="st0" d="M-1056.7,822.8c-1-2.4-1.6-3.3-1.7-4.1c-1.2-29.7-0.8-59.3,5.1-88.5c1.4-6.8,3.3-13.7,6.5-19.8
	c23.1-45.2,58-75.5,109.2-84.6c5.6-1,11.1-2.1,16.6-3.2c9-1.8,17.2-0.3,24.6,5.2c4.8,3.6,9.6,7.2,14.4,10.8c6,4.5,8.3,10.4,5.8,17.6
	c-4.2,12.2-7.4,25-13.3,36.5c-12.8,25.2-26.9,49.7-40.6,74.4c-3.9,7-10,11.6-17.6,14c-14.6,4.6-29.1,9.4-43.8,13.4
	c-19.1,5.2-37.2,12.5-54.3,22.3C-1049,818.5-1052.5,820.4-1056.7,822.8z"/>
<path class="st0" d="M-896.2,1098.4c-5-3.2-5.9-8.6-6.5-13.7c-7.3-62.2-13-124.5-9.7-187.2c0.7-13.3,2-26.5,3.3-39.8
	c1.2-12.1,3.3-13.5,14.4-9.4c17.8,6.6,35.4,13.4,53.2,20c9,3.4,18.1,6.5,27.2,9.7c12.1,4.1,13.5,6.3,11,19.1
	c-3.2,17-6.6,33.9-9.9,50.9c-2.3,11.4-4.8,22.8-6.9,34.2c-3.2,17.1-10.9,32-22.5,44.9c-6.7,7.4-13.6,14.7-20.5,21.8
	c-12.5,12.7-22.8,26.9-28.9,43.8c-0.6,1.5-1.3,3-2.1,4.4C-894.6,1097.6-895.4,1097.8-896.2,1098.4z"/>
<path class="st0" d="M-1136,1428.6c0-11.3-0.6-21.5,0.1-31.6c4.2-56.1,16.4-110.6,33.8-163.9c9.2-28.1,19.8-55.8,30.1-83.6
	c7.8-21.1,19.1-40.3,33.5-57.6c10-12,19.8-24.2,29.9-36.3c2.1-2.5,4.6-4.5,8.2-7.9c2.1,4.3,4.3,7.3,4.9,10.5
	c2.2,12.3,2.2,24.5-3.4,36.2c-9.2,19-14.4,39.3-19.7,59.6c-3,11.6-6.3,23.1-10.2,34.4c-27.5,80.5-62.9,157.6-101.3,233.4
	c-0.9,1.8-1.9,3.5-3,5.2C-1133.3,1427.5-1134.1,1427.7-1136,1428.6z"/>
<path class="st0" d="M-1212.8,1375.1c1.5-3.6,2.9-7.2,4.5-10.8c22.2-48.1,36.2-98.5,43.1-150.9c2.8-21.4,4.5-43.1,8.7-64.2
	c7.8-39.7,24.2-75.9,48.1-108.6c2.7-3.7,5.4-9.2,10.5-7.3c3.3,1.2,6,5.9,7.5,9.6c6.5,15.7,8,32,6.6,48.9
	c-6.8,84.8-38.2,160.5-85.7,230.2c-12.4,18.1-26.3,35.2-39.6,52.7c-0.5,0.7-1.6,1-2.4,1.5
	C-1211.9,1375.8-1212.4,1375.5-1212.8,1375.1z"/>
<path class="st0" d="M-891.3,614.4c3.5-1.9,6.2-3.6,9.2-5c26.9-12.4,53.8-24.7,80.7-37c1.8-0.8,3.7-1.6,5.5-2.3
	c3.6-1.3,6.7-0.7,8.5,2.9c13.3,26.3,34.5,46.3,54.1,67.5c1.7,1.8,2.9,4.1,5.7,8c-7.3-1.4-12.4-2.1-17.5-3.4
	c-22.5-5.8-45-11.8-67.5-17.8c-14.3-3.9-28.3-3.8-41.8,2.8c-6.7,3.3-12.3,2.8-18.2-2.5C-877.9,622.8-884.4,619.2-891.3,614.4z"/>
<path class="st0" d="M-129,1525.3c-7.5,3.7-7.8,4.2-5.4,9.5c1.2,2.7,2.9,5.2,4.3,7.9c15.1,27.8,30.2,55.6,45.2,83.4
	c1.9,3.5,3.3,7.3,4.8,10.9c1.8,4.4,1.8,8.5-2.6,11.5c-3.9,2.6-7.9,1.8-12.1-3.3c-3.2-3.8-5.9-8.1-8.3-12.4
	c-12.7-23.4-25.3-46.9-37.9-70.3c-1.7-3.2-3.5-6.3-5.3-9.4c-8.1,4.5-8.9,6-6.1,12.4c1.7,4,4,7.7,6,11.5c10,19.6,20,39.1,29.9,58.7
	c0.8,1.5,1.4,3,2.1,4.5c1.5,3.7,3.9,8.3-0.3,10.7c-2.3,1.3-7.3,0.1-10-1.7c-3.4-2.3-6.3-5.9-8.2-9.6c-8.7-16.8-17-33.9-25.5-50.9
	c-1.9-3.8-4-7.6-6-11.2c-9.7,3.7-10.6,5.5-6.7,13.8c4.9,10.5,10.2,20.9,15.3,31.5c-4.4,4.6-7.5,2.1-10-1.2
	c-5.3-7.2-11.1-14.3-15.3-22.2c-11.5-21.6-24.7-41.9-40.4-60.6c-18.3-21.8-23.1-46-13.4-72.7c5.1-13.9,4.9-28.2,3.6-42.5
	c-2.8-30.5-6.2-61-9.7-91.4c-1-8.9-3.4-17.6-5-26.5c-0.4-2.2-0.5-4.4,0.9-7.6c2.4,2.9,5,5.7,7.2,8.8c15.8,22.3,31.4,44.7,47.2,67
	c4.2,6,9.2,11.4,13.8,17.1c6.8,8.5,15,14.5,25.7,17.9c6.7,2.2,13.2,6.7,18.3,11.7c19,18.6,39,36.3,55.8,57.2c3.9,4.8,11,7,16.8,10.1
	c5.7,3.1,11.7,5.8,17.3,8.5c-4,11.1-10.1,15.1-21.2,13.5c-9.5-1.4-18.9-3.9-28.3-6c-8.8-2-17.1-1.8-25.2,4.9c2,3.9,3.7,7.8,5.8,11.4
	c13.1,22.8,26.3,45.6,39.3,68.5c2.4,4.3,4.6,9,5.6,13.7c0.6,2.7-0.8,6.9-2.8,8.7c-3,2.7-6.3-0.2-8.5-2.7c-2.4-2.7-4.4-5.8-6.3-9
	c-12.8-21.4-25.6-42.9-38.3-64.4C-124.8,1531.8-127,1528.6-129,1525.3z"/>
<path class="st0" d="M-313,1116.7c-1.9-2.5-3.9-4.9-5.6-7.6c-9.5-14.8-18.8-29.9-28.5-44.6c-19.4-29.2-30.4-62-41.8-94.7
	c-16-45.8-26.2-92.8-31.6-140.9c-0.6-4.9-0.8-10-0.2-14.9c1-9,5.9-12.7,14.5-10.1c19.1,5.7,38.3,11.4,56.8,18.6
	c18.4,7.2,32.5,20.4,43.4,37c21.5,32.8,32.1,68.4,29.5,107.8c-1,15-5.2,28.9-13.8,41.2c-12.5,17.9-17.5,37.9-18.5,59.2
	c-0.6,12.6-0.8,25.3-1.3,37.9c-0.1,3.5-0.7,7-1.1,10.5C-311.8,1116.3-312.4,1116.5-313,1116.7z"/>
<path class="st0" d="M-324.4,822.5c-3.2-1.5-5.6-2.4-7.8-3.8c-20.4-12.4-42.6-20-65.5-26.3c-13.4-3.7-26.7-8.1-39.7-13.1
	c-4.7-1.8-9.7-5.3-12.3-9.5c-19.9-31.9-39.4-64.1-52.2-99.7c-1.7-4.7-3.3-9.4-4.4-14.3c-1.5-6.3,0-11.7,4.9-16.3
	c13.9-12.9,29-19.4,49-15.9c47,8.2,83.4,31.5,109.3,71.5c7.3,11.3,12.2,23.4,14.8,36.7c5.5,28.7,5.6,57.6,5.1,86.6
	C-323.3,819.4-323.8,820.3-324.4,822.5z"/>
<path class="st0" d="M-247,1429.7c-0.9-1.3-1.9-2.5-2.6-3.9c-18.2-37.4-37.9-74.1-54.3-112.3c-19.4-45.2-36.3-91.5-53.6-137.6
	c-5.5-14.6-8.2-30.1-12.8-45.1c-3.5-11.4-7.7-22.7-12.1-33.8c-4.8-12.1-6.1-24.5-4.3-37.2c0.4-2.6,0.9-5.5,2.4-7.5
	c1-1.3,3.9-1.9,5.8-1.7c1.3,0.1,2.7,1.8,3.8,3c26.3,29.8,51.7,60.5,66,98.1c23.2,61,44.6,122.6,55.2,187.3
	c4.4,26.6,6.1,53.5,8.9,80.3c0.3,3.2,0,6.4,0,9.6C-245.5,1429.3-246.2,1429.5-247,1429.7z"/>
<path class="st0" d="M-284.6,1032.4c6.6,1.2,9.2,5.6,12.1,9.6c23.8,33.2,40,69.9,47.6,110c4.9,25.8,8.3,51.9,11.6,78
	c5.8,47,20,91.5,39.7,134.4c1.3,2.9,2.3,5.9,1.9,9.7c-1.8-1.8-3.8-3.4-5.4-5.3c-52.4-62.8-90.7-132.8-110.7-212.4
	c-6.9-27.2-10.4-54.9-10-83.1c0.2-11.5,1.6-22.6,7.3-32.8C-289,1037.5-286.5,1034.9-284.6,1032.4z"/>
<path class="st0" d="M-493.8,614.3c-8.4,6.2-15.7,11.9-23.4,17.1c-1.9,1.3-5,1.3-7.5,1c-2.6-0.3-5-1.7-7.4-2.8
	c-12.6-5.9-25.5-6.2-38.9-2.5c-22.7,6.2-45.6,12-68.4,17.9c-5,1.3-10,2.1-15,3.2c-0.4-0.7-0.8-1.3-1.2-2c1.9-2.5,3.6-5.2,5.7-7.5
	c7.4-8.1,15.4-15.7,22.2-24.3c9.9-12.5,19-25.6,28.3-38.5c5.1-7,6.2-7.7,13.9-4.2c29.1,13.1,58,26.4,87,39.7
	C-497.2,611.9-496.2,612.8-493.8,614.3z"/>
<path class="st0" d="M-696.4,1451.7c-18.4-4.1-32.4-12.8-42.9-27.1c-15.4-20.9-25.5-44.4-33.8-68.7c-12.7-37.4-20-75.9-23.9-115.1
	c-0.9-8.9-1.9-17.9-2.1-26.9c-0.2-11.7,3.5-15,15.1-14.2c5.3,0.4,10.5,1.5,15.7,2.8c15.2,3.8,30.3,7.9,45.4,11.6
	c12,3,18.6,10.1,20.3,22.7c4.3,31.8,6,63.6,6.4,95.6c0.4,34,0.5,67.9,0.7,101.9C-695.4,1440-696,1445.6-696.4,1451.7z"/>
<path class="st0" d="M-685.9,1451.7c0-10.5-0.1-19.4,0-28.3c0.9-50,1.5-99.9,2.9-149.9c0.4-14.2,3.2-28.4,5.1-42.6
	c0.9-6.9,4.9-11.5,11.4-13.9c20.6-7.7,41.5-14.5,63.4-17.5c1.3-0.2,2.6-0.5,4-0.5c10.9-0.5,15.8,3.3,15.9,14.2
	c0.1,10.3-0.6,20.6-1.7,30.9c-5,47.6-15.1,93.9-33.9,138.1c-6.7,15.7-14.3,30.8-25.1,44.2C-654.2,1439.4-667.1,1448.1-685.9,1451.7z
	"/>
<path class="st0" d="M-626.5,1423.5c2.5-5.4,4.6-10.2,7.1-14.9c20.2-39.2,36.8-79.9,45.2-123.3c3.6-18.6,5.9-37.5,7.2-56.4
	c1-14.2,5.8-24.5,18.6-31.7c18.7-10.5,32.4-26.4,43.7-44.4c2.6-4.2,5.3-8.3,8.9-14c1.9,5,3.7,8.5,4.6,12.1
	c5.7,23.3,9.6,47,10.2,71.1c0.5,19.9-3.2,38.9-11.6,57.2c-25.2,55.2-62.1,100.7-111.3,136.1
	C-610.3,1419.9-616.7,1424.7-626.5,1423.5z"/>
<path class="st0" d="M-755,1423.6c-7.4,2.3-12.4-1.1-17.4-4.4c-18.9-12.6-35.9-27.5-51.7-43.9c-25.9-26.8-46.7-57.2-62.6-90.9
	c-12.7-26.9-17.5-55-12.4-84.5c2.9-16.7,6-33.4,9.2-50c0.5-2.8,1.7-5.6,3.2-10.5c3,3.8,5.1,6.1,6.7,8.7c13.6,22.2,30.6,41,53.8,53.6
	c7.8,4.3,10.4,11.4,10.9,20c0.9,14.3,1.6,28.6,3.6,42.7c6,42.2,20,81.9,38.1,120.3c4.5,9.6,9.4,19.1,14.1,28.7
	C-757.9,1416.7-756.6,1420-755,1423.6z"/>
<path class="st0" d="M-682.9,1145.1c0-15.6-1-31.4,0.3-46.9c1.7-20.2,4.6-21.5,23.3-22c27.2-0.8,53,4.4,76.8,18.1
	c12.4,7.1,14.1,10.4,11.9,24.2c-2.7,17.2-7.9,33.6-15.7,49.3c-5.2,10.6-13.3,17.2-24.7,20c-15.8,3.9-31.6,8-47.4,12.1
	c-1.9,0.5-3.9,1-5.8,1.4c-14.4,3.4-18.6,0.4-18.8-14.1c-0.2-14,0-28,0-42C-683.1,1145.1-683,1145.1-682.9,1145.1z"/>
<path class="st0" d="M-577.5,1192.1c1.8-3.1,2.7-5.1,4.1-6.8c17-20,23.4-43.6,24.4-69.2c0.9-23.7-1.4-47.2-6.8-70.3
	c-0.4-1.6-0.7-3.3-0.9-4.9c-0.1-0.6,0.2-1.3,0.5-2.9c2,1,4.1,1.6,5.6,2.9c15.3,12.5,28.6,26.8,40,43c8.4,11.9,9.9,24.2,4.6,37.7
	c-6.9,17.6-16.4,33.4-29.5,47c-10.1,10.5-22.1,18.1-36.1,22.4C-572.9,1191.5-574.5,1191.6-577.5,1192.1z"/>
<path class="st0" d="M-824.9,1039.1c-0.9,5.2-1.7,10.4-2.8,15.5c-5.7,28.6-7.7,57.3-1.8,86.2c3.4,16.3,9.9,31,20.7,43.7
	c1.3,1.5,2.4,3.2,3.4,4.9c0.3,0.5,0,1.3,0,3.2c-3.9-0.9-7.8-1.3-11.3-2.7c-11-4.4-20.4-11.2-28.4-19.9
	c-13.7-14.9-24.1-31.8-31.7-50.5c-5-12.3-4.2-24.4,5-34.6c13.6-15.1,27.6-29.8,41.5-44.6c0.8-0.9,2.1-1.4,3.2-2
	C-826.3,1038.5-825.6,1038.8-824.9,1039.1z"/>
<path class="st0" d="M-474,2049.5c-2-2.6-4.1-5-5.9-7.7c-12.7-19.1-25.1-38.5-38.1-57.5c-22-32.3-34.1-68.3-40.8-106.4
	c-8.5-47.9-13.8-96.2-14.8-144.9c-0.7-37.9,4.5-75.1,13.5-111.7c22.4-91.4,45-182.8,67.6-274.2c1-4,3.1-7.7,6.6-11.3
	c0.3,1.7,0.7,3.4,0.8,5.1c1.5,42.9,2.5,85.9,4.7,128.8c1,20.2,4.4,40.4,6.4,60.6c3.3,33.5,6.3,67,9.2,100.5
	c1.7,19.2,2.6,38.5,4.2,57.8c2.7,31.6,1,63.2-0.3,94.9c-2.9,68.5-5.7,137.1-8.5,205.7c-0.6,16-1,32-1.5,47.9
	c-0.1,3.9-0.4,7.8-0.7,11.7C-472.4,2049-473.2,2049.3-474,2049.5z"/>
<path class="st0" d="M-618.2,1767.7c-0.9-3-2-5.9-2.8-9c-14.3-54.8-23.6-110.5-30.4-166.8c-4.2-34.5-6.2-68.9-6.1-103.6
	c0-9.7,3.5-16.7,11.7-21.5c2.9-1.7,5.7-3.5,8.6-5c40.4-21.1,74-50.8,103.9-84.8c7.8-9,13.9-19.5,20.8-29.3c1.5-2.1,3-4.3,6.1-6.3
	c0,2.4,0.3,4.8,0,7.1c-5.7,34.2-14.6,67.6-24.9,100.6c-31.9,101.6-59,204.4-81.7,308.5c-0.7,3.4-2.1,6.7-3.1,10
	C-616.8,1767.7-617.5,1767.7-618.2,1767.7z"/>
<path class="st0" d="M-453.6,1894.2c0.5-11.9,0.9-23.7,1.5-35.6c2.1-42.2,5.2-84.4,6-126.7c0.5-29.2-1.4-58.5-3.5-87.7
	c-2.3-33.2-5.9-66.3-9.1-99.4c-2.6-26.2-5.3-52.3-8.3-78.4c-4.7-40.5-4.1-81.1-3.3-121.7c0.3-12.3,0.9-24.6,1.4-36.9
	c0.1-2.1,0.5-4.2,2.4-6.5c0.7,1.6,1.6,3.2,2,4.8c16.1,58,32.4,116,44,175.1c4.4,22.5,6.6,45.4,9.5,68.2c2.4,18.5,4.3,37,6.6,55.5
	c2.7,21.6,2,43.2,0.5,64.8c-4.1,57.4-17.3,113-31.7,168.4c-3.6,13.8-7.3,27.6-11.1,41.4c-1.4,5.1-3.1,10.1-4.7,15.1
	C-452.1,1894.4-452.8,1894.3-453.6,1894.2z"/>
<path class="st0" d="M-907.5,2049.6c-0.4-3.2-1.1-6.4-1.2-9.6c-1.4-50.6-2.6-101.3-4.3-151.9c-0.9-25.6-3.1-51.2-4.4-76.8
	c-2.9-56.3-3.5-112.5,2.1-168.7c4.1-41.1,6.9-82.3,10.6-123.5c1.6-18.2,4.9-36.4,5.8-54.6c2-39.6,2.8-79.2,4.2-118.8
	c0.1-4.2,0.6-8.4,0.9-12.6c0.8-0.1,1.6-0.3,2.3-0.4c1,3.2,2.1,6.3,2.9,9.5c22.6,91.4,45.4,182.8,67.8,274.2
	c4.9,20,9.1,40.3,12.1,60.6c4.6,31.5,3.1,63.2,1.3,94.8c-2.4,44.3-8.7,88.1-18.8,131.3c-6.7,28.5-17.9,55-33.8,79.6
	c-13.2,20.4-26.8,40.6-40.3,60.8c-1.4,2.2-3.2,4.1-4.8,6.1C-906,2049.6-906.7,2049.6-907.5,2049.6z"/>
<path class="st0" d="M-871.2,1342.5c1.4,1.7,2.9,3.4,4.1,5.2c31.6,50.4,75.9,87.2,127.3,115.6c13.5,7.4,18.6,17.3,18.5,32.2
	c-0.5,78.4-13.3,155.1-30.4,231.3c-2.4,10.7-4.6,21.5-7,32.2c-0.7,3.2-1.6,6.4-4.4,9.9c-1.2-3.8-2.6-7.6-3.5-11.5
	c-6.5-27.9-12.5-55.8-19.3-83.6c-19.6-80.5-42.4-160.1-66.3-239.5c-8.2-27-13.7-54.9-20.2-82.4c-0.7-2.8-0.5-5.9-0.7-8.8
	C-872.5,1342.9-871.8,1342.7-871.2,1342.5z"/>
<path class="st0" d="M-911,1302.1c0.7,15.5,2.2,31.1,2.1,46.6c-0.2,35-0.2,70-2.1,104.8c-1.6,29.2-5.6,58.3-8.6,87.5
	c-3,29.5-5.9,59-9,88.4c-4.8,44.5-6.2,89-4,133.7c1.4,27.9,3.2,55.9,4.8,83.8c0.9,16.9,1.7,33.9,1.4,51.3c-0.8-1.4-2-2.8-2.4-4.3
	c-14.6-53.6-29.7-107.1-39.3-161.9c-7.9-44.8-11.7-89.8-6.4-135.2c2.7-23.5,6.5-46.8,8.8-70.4c6.4-65,25.6-127.1,42-189.8
	c2.3-8.7,4.6-17.4,7.1-26c0.9-3.1,2-6.1,3-9.1C-912.9,1301.7-912,1301.9-911,1302.1z"/>
<path class="st0" d="M-878.1,2046.2c-1,8.1-1.6,16.4-3.2,24.4c-7.9,41.1-9.9,82.7-7.9,124.4c2.2,46.6,5.3,93.2,7.3,139.8
	c1.6,35.3,2.3,70.6,3.1,105.9c1.1,49.6,7.3,98.3,24.2,145.2c3.8,10.6,8.2,21.1,12.3,31.6c1.2,3,2.2,6.1,3.7,10.2
	c-1.8-0.9-2.7-1.1-3.2-1.7c-35.2-39.4-64.4-82.7-78.4-134.2c-7.5-27.6-13.1-55.7-18.3-83.8c-4.4-24.2-7.4-48.7-10.3-73.2
	c-3.8-31.6-2.3-63.3,0.3-94.8c3.5-42,11.7-83,28-122.2c9.1-21.9,20-42.9,33.1-62.6c2.2-3.3,4.6-6.4,6.8-9.6
	C-879.8,2045.7-879,2046-878.1,2046.2z"/>
<path class="st0" d="M-812.7,2159.2c0.3,1.3,0.9,2.5,0.9,3.8c0.3,26.1,5.2,51.6,11.2,76.9c11.5,48.6,8.3,96.4-7.1,143.6
	c-8.3,25.3-16.6,50.5-25.2,75.7c-12.6,36.7-15.6,74-7.2,112.1c3.1,14.3,5.8,28.7,8.6,43c0.6,3.2,0.9,6.4,1.5,11.8
	c-6.3-6.7-8.8-13.1-10.5-19.5c-9-32.7-19.3-65.1-22.8-99c-1.3-12.6-2.2-25.3-1.7-37.9c1.6-35.6,2.9-71.2,6.7-106.6
	c2.7-25.4,8.6-50.5,14-75.5c8.3-38.7,17.3-77.2,26-115.8c1-4.5,2.5-8.8,3.8-13.2C-813.9,2158.7-813.3,2158.9-812.7,2159.2z"/>
<path class="st0" d="M-830.4,1972.6c2.3,10.5,4.7,20.1,6.5,29.9c6.4,35.9,10.3,72,5,108.3c-2.9,20.4-7.8,40.5-12.3,60.6
	c-9.7,43.2-19.8,86.3-29.9,129.4c-1.2,5.3-3,10.5-4.6,15.8c-0.7,0-1.5-0.1-2.2-0.1c-0.4-1.7-1-3.3-1.1-5
	c-4.5-57.2-6.9-114.4-6.7-171.7c0.1-26.5,4-52.4,11.3-77.8c6.4-22.4,13-44.7,19.7-67C-842.1,1986.7-839.4,1978.4-830.4,1972.6z"/>
<path class="st0" d="M-539.2,2624.3c1.1-3,2.1-6.1,3.4-9.1c17.4-39,27.6-80,31-122.4c3-37.8,4.1-75.8,5.9-113.7
	c1.9-39.9,3.7-79.9,5.6-119.8c1.3-28,3.2-55.9,4.1-83.9c1.2-35.1-3-69.8-8.6-104.4c-1.3-8-2.2-16.1-3.3-24.1
	c0.7-0.3,1.5-0.6,2.2-0.9c2.3,3,4.9,5.9,7,9.1c28.3,42.8,46.3,89.7,55.3,140.2c9.2,51.9,9.6,104,4.4,156.3
	c-5.1,50.9-15.1,100.7-30,149.5c-10.1,33.2-26.1,63.3-47.3,90.7c-8.9,11.5-18.3,22.7-27.5,34
	C-537.8,2625.3-538.5,2624.8-539.2,2624.3z"/>
<path class="st0" d="M-549.5,2625c1-13.8,3.7-27.4,7.3-40.7c4.8-17.4,7.4-35.1,7.5-53.2c0.2-23.6-3.9-46.4-11.2-68.7
	c-8.6-26.3-17.4-52.4-26-78.7c-11.1-33.9-16.8-68.6-12.9-104.2c2-17.8,5.2-35.5,8.1-53.3c3.5-21.3,7.1-42.6,11.1-66.4
	c1.5,3.8,2.5,5.8,3,7.9c9.9,44.1,20,88.2,29.6,132.4c4.8,22.4,9.4,44.9,12.7,67.6c2.3,16.1,2.3,32.5,3,48.8
	c0.9,18.6,1.2,37.3,2.1,55.9c1.8,35.1-4.8,68.9-14.6,102.3c-4.5,15.3-10.1,30.2-15.2,45.3c-0.6,1.8-1.8,3.5-2.7,5.2
	C-548.2,2625.2-548.9,2625.1-549.5,2625z"/>
<path class="st0" d="M-680.3,758.3c1.3-16.9,1.6-34,4.1-50.7c2.9-19.9,14.6-34.1,33.8-41.1c24.7-9,49.6-17.5,74.3-26.2
	c8.7-3.1,17.1-1.9,25.1,2.3c11.9,6.3,21,15.2,26,27.8c12.4,31,28,60.3,43.7,89.7c5,9.4,8.5,19.5,12.7,29.2c2.4,5.6,1.3,10.4-3,14.5
	c-28.6,27.2-59.8,49.9-99.1,59.1c-17.1,4-34.3,4.4-51.5,0.8c-35.7-7.4-63.2-39.8-64.9-76.5c-0.4-9.6-0.1-19.3-0.1-28.9
	C-679.5,758.3-679.9,758.3-680.3,758.3z"/>
<path class="st0" d="M-485.6,1100.1c-1.1-1.5-2.2-2.4-2.6-3.5c-6.2-20.3-19.2-36.3-33.5-51.4c-3.9-4.1-7.9-8.1-11.9-12.1
	c-15.1-15.4-24.5-33.4-28.2-55c-4.6-26.5-10.7-52.8-16.1-79.2c-0.4-2-0.8-3.9-1-5.9c-0.8-8.4,0.3-10.7,8.2-13.7
	c29-10.8,58-21.5,87.1-32c7.2-2.6,9.7-1,10.5,6.9c4.7,48.7,9,97.5,3,146.5c-3.3,26.4-5.8,52.9-8.7,79.4
	C-479.6,1087.1-480.9,1093.9-485.6,1100.1z"/>
<path class="st0" d="M-695.3,512.4c-12.2-0.3-24-2.5-34.9-7.9c-14.9-7.4-29.6-15.2-44.4-22.8c-6.4-3.3-10-8.6-10.7-15.8
	c-1.2-12.6-2.4-25.2-3.6-37.8c-0.4-3.6-0.9-7.3-1.1-10.9c-0.3-5.2-3-7.9-8.2-8c-9.6-0.3-14.9-5.7-18.4-14.3c-4-9.9-8.9-19.3-13-29.2
	c-4.9-11.6-2.6-17.7,8.2-24.1c0.9-0.5,1.7-1.2,2.6-1.5c12-3.3,14.4-11.9,14-23.1c-0.8-21.1,2.5-41.8,9.8-61.7
	c17.2-47.1,64.6-76.8,113.6-72.3c51.6,4.7,93.9,45.1,100.6,94.4c1.9,13.5,2.2,27.2,2.4,40.8c0.2,8.8,3,15.3,10.9,19.7
	c4.1,2.2,7.7,5.2,11.4,8.1c5.7,4.5,7.2,10.5,4.7,17c-4.5,11.8-9.4,23.4-14.5,35c-2.7,6.2-8,9.3-14.8,10.6c-9.7,1.8-9.8,2-11,12
	c-1.3,11.6-2.6,23.2-3.2,34.8c-0.7,14.7-6.8,25-20.4,31.5c-21,10.1-42,20.2-65.3,23.8C-685.4,511.5-690.4,511.9-695.3,512.4z"/>
<path class="st0" d="M-771,501.9c9.5,4.5,17.6,8.3,25.7,12.1c8.2,3.8,14,10.1,17.8,18.2c13.4,28.1,23.6,57.2,25.6,88.6
	c0.3,5.5-0.5,11.1-0.9,18.7c-4.7-2.4-7.9-3.6-10.7-5.5c-14.8-9.9-27.7-22-38.2-36.3c-7.9-10.7-14.9-22-21.8-33.4
	c-2.2-3.5-3.8-8.1-3.7-12.1c0.3-13,1.3-25.9,2.5-38.8C-774.4,509.8-772.5,506.5-771,501.9z"/>
<path class="st0" d="M-678.5,637.8c-2.3-18.8-1.3-36.7,4.7-53.9c6.3-18.2,13.8-36,21.3-53.8c1.9-4.4,5.4-8.9,9.4-11.3
	c8.4-5.2,17.5-9.5,26.6-13.5c5.1-2.2,7.6-0.8,8.8,4.7c3.3,15.3,6.8,30.9,2.5,46.4c-2.1,7.5-5.8,15-10.5,21.2
	c-11.1,14.6-23.2,28.4-35.1,42.4C-659.8,630.6-667,635.1-678.5,637.8z"/>
<path class="st0" d="M-692.2,615.8c-3.3-15-6.1-30.1-10.2-44.8c-4.1-14.6-9.5-28.8-14.6-44c17.1,0,33.4,0,51.2,0
	c-0.7,3.4-1,6.5-2.2,9.4c-9.3,22.8-16.3,46.2-19.4,70.8c-0.4,3-1.8,6-2.8,8.9C-690.8,616-691.5,615.9-692.2,615.8z"/>
<path class="st0" d="M-478.1,2575.4c4.7,30.5,9.2,59.1,13.3,87.7c1.4,9.5,4.6,17.8,11.3,24.9c9.3,10,18,20.5,27.2,30.6
	c12.8,14.1,27.5,26.1,43.4,36.6c16.9,11.1,31.1,25,43.1,41.2c1.8,2.4,3.6,4.8,5.1,7.4c6,10,5,13.4-5.6,18.5
	c-18.9,9.2-38.2,17.1-59.6,18.4c-20.1,1.2-38.3-3.5-54.5-15.4c-4.8-3.5-9.7-7.1-14.3-10.9c-12.1-10.1-25.4-17.9-40.7-22.5
	c-15-4.4-23.6-15.6-27.4-30.4c-6.1-23.6-8.2-47.8-10-72.1c-0.2-3.3-0.2-6.7-0.5-10c-1.1-12.7,3-23.6,11.3-33
	c5.5-6.2,11.2-12.3,16.9-18.3c13.9-14.4,26.7-29.7,36.4-47.4C-481.8,2579-480.3,2577.8-478.1,2575.4z"/>
<path class="st0" d="M-901.1,2575.3c2.4,3.1,3.7,4.5,4.7,6.2c11.2,19.9,26.1,36.9,42,53.1c4,4,8,8.1,11.5,12.5
	c7,8.9,11.7,19.1,10.7,30.4c-2.2,25.5-1.3,51.3-8.6,76.2c-1.5,5.1-3.2,10.1-4.6,15.3c-2.8,10.6-9.8,17.6-19.8,20.7
	c-20.1,6.3-37,17.6-53.2,30.7c-25.1,20.3-53.3,26.3-84.3,15.6c-12.3-4.2-24.4-8.7-36.5-13.5c-9.6-3.8-10.8-7.7-6.4-17
	c1.6-3.3,3.5-6.5,5.8-9.3c13.2-16.5,27.8-31.3,45.7-42.8c17.8-11.4,33.2-25.6,46.9-41.6c6.9-8.1,13.8-16.3,21.2-23.9
	c6.6-6.8,9.9-14.6,11.2-23.8c3.7-27.4,7.9-54.7,11.9-82C-902.7,2580.5-902.1,2579-901.1,2575.3z"/>
<path class="st0" d="M-593.1,1748.6c0.8,5.7,2.1,11.5,2.3,17.2c2.2,54.5,11.8,107.9,24.8,160.7c4.1,16.6,4.3,32.7-0.3,49.2
	c-8,28.8-9.5,58.4-10.4,88.1c-0.2,7.2-0.6,14.5-2.8,22.2c-1.1-2-2.5-4-3.4-6.2c-13.7-33.1-21.6-67.8-26-103.3
	c-5.1-40.8-6.8-81.6-4.1-122.7c2.3-34,7.4-67.5,15.9-100.5c0.4-1.7,1.4-3.3,2-5C-594.3,1748.5-593.7,1748.5-593.1,1748.6z"/>
<path class="st0" d="M-802.6,2090.6c-0.3-7.9-0.6-15.7-1-23.6c-1-18.9-1.5-37.9-3.3-56.8c-1.1-11.5-3.8-22.9-6.6-34.2
	c-4-16.5-3.8-32.9-0.3-49.4c6.1-28.3,12.7-56.4,17.4-85c3.8-23.6,5.1-47.6,7.5-71.5c0.8-7.8,1.6-15.6,2.5-24.3
	c6.8,8.4,16.8,65.6,19.6,102.6c6.3,83.3-3.7,164.3-32.8,242.6C-800.5,2090.9-801.6,2090.8-802.6,2090.6z"/>
<path class="st0" d="M-513.3,2319.2c-0.6-1.7-1.4-3.3-1.8-5c-14-60-27.8-119.9-41.9-179.9c-5.2-22.2-7-44.7-5.8-67.5
	c1.4-26.6,4.1-53.1,10.1-79.2c1.1-4.7,2.7-9.4,4.1-14c5.7,0.9,7.2,4.7,8.5,8.5c15.5,43.7,30.1,87.6,34.6,134
	c1.8,18.2,2.5,36.6,1.8,54.9c-1.9,48.3-4.8,96.5-7.3,144.7c-0.1,1-0.4,1.9-0.6,2.9C-512.1,2318.9-512.7,2319-513.3,2319.2z"/>
<path class="st0" d="M-433.9,848.2c14.6,56.7,29.3,113.4,44.2,171.2c-12.7-8.9-32.6-48.2-41.7-81c-8.2-29.6-10-59.5-4.9-89.8
	C-435.5,848.5-434.7,848.3-433.9,848.2z"/>
<path class="st0" d="M-993.3,1022.9c15.1-60.1,30.1-120.2,45.2-180.2c0.8,0,1.7,0,2.5,0c0.9,5.3,2.5,10.6,2.7,16
	c2.6,52.2-9.7,101-35,146.6c-2.7,4.9-6.2,9.5-9.5,14.1c-1.1,1.6-2.6,2.9-3.9,4.4C-991.9,1023.4-992.6,1023.2-993.3,1022.9z"/>
<path class="st0" d="M-698.8,1155.9c0,8.7,0,17.3,0,26c0,3.3,0,6.7-0.4,10c-1,9.3-4.1,11.7-13.1,10.4c-1.3-0.2-2.6-0.4-3.9-0.7
	c-19.6-5.1-39.3-10.3-58.9-15.3c-7.6-1.9-13-6.4-16.9-13c-10.7-18.4-16.8-38.3-19.5-59.3c-1-7.9,2.2-13.5,8.9-17.5
	c17.4-10.4,35.9-17.6,56.3-18.5c10.6-0.5,21.3-0.7,32-0.5c10.5,0.2,11.9,1.8,13.5,11.9c2.9,18.1,5.3,36.2,3.1,54.6
	c-0.5,4-0.4,8-0.6,12C-698.5,1155.9-698.7,1155.9-698.8,1155.9z"/>
<path class="st0" d="M-569.9,1080.8c-4.1-1.8-6.9-2.7-9.4-4.1c-20.4-11.9-42.7-16.2-66.1-16.3c-9.3,0-18.6-0.1-28-0.4
	c-8.6-0.3-10-1.4-10.1-10c-0.2-19.3-0.3-38.6,0.1-57.9c0.2-11.4,2.9-13.9,14.4-14.5c31.5-1.9,58.9,8,82.6,28.7
	c7,6.2,10.8,13.9,11.7,23.4c1.1,11.9,3.2,23.7,4.6,35.6C-569.5,1069.9-569.9,1074.5-569.9,1080.8z"/>
<path class="st0" d="M-577.4,987.4c-4.7-2.1-7.7-3.2-10.5-4.7c-23.5-12.6-48.7-19.4-74.9-22.7c-20.7-2.6-20.8-2.5-20.8-22.9
	c0-1,0-2,0-3c0-33.4,0-33.4,19.3-60.5c4.8-6.8,6.7-7.7,14.1-4.6c13.2,5.4,26.3,11.1,39.4,16.8c8.2,3.6,13.3,10,15.3,18.6
	c5.8,23.9,11.4,47.8,16.9,71.8C-577.7,979.1-577.8,982.3-577.4,987.4z"/>
<path class="st0" d="M-812.7,1081.1c0-7.7-0.5-13.6,0.1-19.4c1-9.9,2.4-19.8,4-29.7c2.1-12.7,8.4-23.1,18.8-30.7
	c23.3-17.3,49.4-25.7,78.5-23.4c8,0.6,11.1,2.7,11.9,9.5c2.5,21.8,4.6,43.7,0.7,65.6c-0.3,1.9-1.1,3.7-1.8,6.3
	c-4.1,0.3-8,0.6-11.9,0.7c-15.6,0.7-31.3,1.1-46.9,2.2c-14.8,1.1-28.5,5.9-41.4,13.4C-803.9,1077.5-807.6,1078.8-812.7,1081.1z"/>
<path class="st0" d="M-805.2,988.1c0.6-5.5,0.7-9.2,1.4-12.6c4.4-19.8,9.1-39.5,13.3-59.3c3.9-18,13.8-30.5,31.4-36.9
	c9.1-3.3,17.9-7.1,26.9-10.4c7.5-2.7,9.8-1.9,14.3,4.5c2.9,4.1,5.2,8.5,8.3,12.4c9.5,12.1,13.5,25.7,12.4,40.9
	c-0.4,6.3-0.1,12.6-0.5,18.9c-0.5,8.9-2.3,10.8-11.1,12.5s-17.7,2.9-26.6,4.4c-20.5,3.4-39.9,10-58.3,19.7
	C-796.7,983.9-799.9,985.4-805.2,988.1z"/>
<path class="st0" d="M-692.6,814.9c2.9,2.5,5.2,3.8,6.7,5.8c4.7,6.4,9,13.1,13.5,19.7c3.4,4.9,3.5,9.7,0,14.7
	c-5.7,8.1-11.1,16.4-16.8,24.8c-8.1-4-11.1-11.3-15.3-17.5c-10.2-14.8-10.1-15-0.5-29.9c2.9-4.4,6.1-8.6,9.2-13
	C-694.8,818.2-693.9,816.9-692.6,814.9z"/>
<path class="st0" d="M-690.6,695.7c-6.7-12-12.4-22.2-18.6-33.2c12.1,0,23,0,35.7,0C-679.3,673.7-684.5,683.8-690.6,695.7z"/>
<path class="st1" d="M650.9,2123.9c-0.4-4.6-1.1-9.2-1.2-13.8c-0.4-15.3-0.8-30.7-0.7-46c0.1-13.6-3.9-25.4-12.7-35.8
	c-5.4-6.4-10.3-13.1-15.1-19.9c-15.5-21.8-21.4-45.9-18.5-72.7c5.7-53.3,10.7-106.7,13.5-160.3c2.6-49.9,8.1-99.6,12.7-149.3
	c1.6-17.6,4-35,6.5-52.5c3.1-22.4,15.8-37.3,36.3-46.5c16.3-7.3,32-15.9,49.1-24.5c0.7,2.6,2.2,5.8,2.4,9.2
	c3.9,65.2,8.5,130.3,5.8,195.7c-1.6,39.9-2.4,79.9-4,119.9c-1.5,38-6.2,75.7-15.5,112.6c-11.5,45.8-23.7,91.5-36.2,137.1
	c-3.5,12.8-9,25-14,37.4c-1.4,3.6-3.9,6.7-5.9,10C652.5,2124.3,651.7,2124.1,650.9,2123.9z"/>
<path class="st1" d="M605.9,1559.5c1.1,9.6,2.6,17.7,2.9,25.9c1.6,42.7-2,85.2-4.8,127.8c-3.2,46.9-6.7,93.7-8.7,140.6
	c-1.9,44.2-10.2,86.4-29.7,126.4c-10.9,22.4-20.7,45.4-31.1,68.1c-1.6,3.6-3.7,6.9-6.7,12.6c-2.2-5.1-4.4-8.1-4.6-11.2
	c-1.3-16.2-2.8-32.5-2.9-48.8c-0.1-13.6,1.4-27.3,2.7-40.9c2-22.1,0-43.7-4-65.5c-7.3-39.9-13.5-80.1-19.6-120.2
	c-4.6-30.3-9.3-60.6-12.2-91.1c-3.3-35.5-5.3-71.1-6.7-106.7c-1.7-41-0.3-81.9,3.1-122.8c1.4-16.9,3.7-33.8,6.3-50.5
	c2.4-15.8,9.6-20,24.4-13.8c6.5,2.7,12.8,7.3,17.6,12.5c11.7,12.6,17.1,28.3,19.5,45.1c4.7,32.5,0.6,64.4-6.6,96.1
	c-0.8,3.6-1.6,7.1-2.1,10.8c-1.7,12.2,3.4,17.8,15.7,16.3c8.5-1,16.9-3.5,25.3-5.5C590.4,1563.2,597.2,1561.6,605.9,1559.5z"/>
<path class="st1" d="M856.9,2124.9c-3.1-6.5-6.6-12.8-9.4-19.4c-11.6-27.7-20.4-56.3-27-85.6c-9.4-41.6-19.8-82.9-27.7-124.8
	c-4.5-24.1-5.7-48.9-6.8-73.5c-2.2-46.6-4.5-93.2-4.4-139.8c0.1-48.9,3-97.9,4.8-146.8c0.2-6.7,0.5-13.3,1-20
	c0.3-4.2,1-8.4,1.7-14.1c4.3,2.5,7.3,4.4,10.4,6.1c11.1,6,21.8,13.2,33.5,17.6c27.9,10.5,41.7,30.3,44.3,59.4
	c2.4,26.5,5.9,53,8.3,79.5c2.8,31.8,5.2,63.7,7.3,95.6c4,60.8,7.7,121.7,15.8,182.1c1.8,13.4,0.3,26.6-4.6,39.3
	c-6.3,16.3-14.6,31.4-26.6,44.2c-10.7,11.5-15.9,25.2-16.1,40.8c-0.2,15-0.2,30-0.5,45c-0.1,4.6-0.8,9.2-1.2,13.7
	C858.7,2124.5,857.8,2124.7,856.9,2124.9z"/>
<path class="st1" d="M982.9,2060.5c-2.8-4.7-4.6-7.3-5.9-10.2c-12.8-27.8-25.8-55.6-38.1-83.6c-14.4-32.7-21.3-67.3-23.4-102.7
	c-4.9-80.8-9.3-161.6-13.4-242.5c-0.9-16.6-0.3-33.3,0.6-49.9c0.6-10.2,3.8-11.8,13.8-9.4c8.7,2.1,17.3,4.8,26.1,6.7
	c4.8,1,9.9,1.4,14.9,1.3c8.3-0.2,12.1-4.6,11-13c-1-7.2-2.6-14.4-4.2-21.6c-4.9-22.2-8.3-44.6-6.8-67.4c0.9-12.9,3-25.8,5.9-38.4
	c2.5-11.2,8.7-20.9,16.4-29.4c6.7-7.4,15-12.1,25-13.3c8.6-1,12.9,1.4,14.4,9.9c2.4,13.1,4.2,26.3,5.8,39.5
	c7.3,63.1,5.9,126.3,3,189.6c-3.4,73.4-15.5,145.6-27.8,217.8c-4.2,24.9-9.4,49.8-12.3,74.9c-1.7,15.1-0.6,30.6,0.4,45.9
	c1.8,28,0.7,55.9-1.1,83.9c-0.1,1.6-0.6,3.3-1.1,4.8C985.7,2055,984.9,2056.4,982.9,2060.5z"/>
<path class="st1" d="M642.1,1243.7c11.8-0.5,14.3,0.8,17.5,11.2c16.8,55.6,44.2,105.5,79.5,151.3c10.3,13.3,12.6,26.8,3.5,42.3
	c-10.2,17.3-23.4,31.5-39.2,43.5c-32,24.3-68.1,40.2-106.1,52.2c-7.9,2.5-16,4.8-24.1,6.3c-9.1,1.7-12.6-1.4-12-10.7
	c1.2-17.3,3.3-34.5,4.7-51.7c2.2-27-2.6-53.1-12-78.4c-5.5-14.7-16-25.1-29.3-32.9c-15.8-9.3-15.8-9.4-8.3-26.5
	c8.1-18.4,17.4-36,30.2-51.6c22.3-27,49.5-46.3,84.3-53.6c1.6-0.3,3.3-0.7,4.9-0.9C638.1,1243.9,640.4,1243.8,642.1,1243.7z"/>
<path class="st1" d="M869.2,1243.6c11.8,0.6,24.3,4.2,36.2,9.5c29.4,13.2,52.7,33.7,69.2,61.3c8.3,14,15.2,28.8,22.4,43.5
	c3.7,7.7,2.8,9.9-4.4,14.9c-2.7,1.9-5.6,3.6-8.5,5.2c-13.4,7.4-22.7,18.5-27.9,32.7c-9.3,25-13.5,50.8-11.5,77.4
	c1.1,15.3,2.8,30.5,4.3,45.7c1.6,17-1.8,19.9-18.3,15.4c-42-11.5-81.9-27.7-117.6-53.1c-16.5-11.7-31-25.2-41.7-42.5
	c-2.5-3.9-4.6-8.1-6.6-12.3c-4.3-9.5-3.5-18.8,1.7-27.7c2.5-4.3,5.5-8.3,8.5-12.3c31.8-42.4,57.7-87.9,72.9-139
	c0.8-2.5,1.7-5,2.8-7.5C854.4,1245.2,857.3,1243.3,869.2,1243.6z"/>
<path class="st1" d="M495.2,2676.6c7.3,0,14.7-0.5,21.9,0.1c11,0.9,18.8-3.1,23.6-12.9c6.3-12.8,13-25.4,18.5-38.6
	c7.2-17.4,19.3-26.5,37.9-27.4c11.1-0.5,19.3,4,25,13.4c8.2,13.3,10.6,28,8.7,43.2c-4.5,35.7-5.3,71.6-5.9,107.6
	c-0.2,13.8-3.1,27.7-5.6,41.4c-2.2,11.9-10,17.9-22.2,19.3c-18.9,2.2-37.1-0.1-55-6.3c-7.5-2.6-13.7-6.9-18.1-13.5
	c-12.3-18.3-29.9-29-50.7-34.9c-5.1-1.5-10.3-2.7-15.3-4.4c-11.6-3.9-21.5-10.5-29.6-19.6c-8.5-9.5-10.5-20.4-6.2-32.5
	c7.9-22.2,25.5-35.1,49-35.7c8-0.2,16,0,24,0C495.2,2676.1,495.2,2676.3,495.2,2676.6z"/>
<path class="st1" d="M925.2,2823.7c-1,0-2,0-3,0c-22.1-0.9-27.4-5.4-33.2-26.8c-3.5-13-5.1-26.1-3.7-39.5c2.4-24-1.9-47.8-3-71.7
	c-0.7-15.6-2.1-31.3-1.1-46.8c0.6-9.7,4.4-19.3,7.8-28.6c2.9-7.9,10-11.2,18.1-12.2c18.7-2.1,33.8,6.3,42.3,23.6
	c6.5,13.1,13.2,26.2,19,39.6c5.1,11.8,13.5,16.1,26.1,15.3c15.6-0.9,31.3-1,46.9-0.5c22.3,0.6,37.4,12.2,45.6,32.8
	c4.8,12,3.5,23.5-4,34.1c-6.3,9-14.9,15.2-25.2,18.8c-8.5,3-17,5.8-25.7,8.1c-18.4,5-33.4,14.5-43.6,31c-5.1,8.2-12.7,14.1-22,16.2
	c-13.6,3.2-27.4,5.3-41.1,7.8C925.3,2824.5,925.3,2824.1,925.2,2823.7z"/>
<path class="st1" d="M877.5,2051.9c23.5,5.8,37.1,20.4,42.5,42c5.7,23.2,10.9,46.7,14.6,70.3c6.7,43.2,9.3,86.7,6.8,130.5
	c-1,18.1-5.1,35.6-12.2,52.3c-6,14.1-15.1,25.8-28.6,33.6c-10.4,6-16.5,5.3-24.8-3.6c-17.1-18.2-25.5-40.2-28.4-64.7
	c-4.2-35.5,1.7-69.9,13.7-103.1c13.1-36.1,17.4-72.9,15.3-111c-0.8-13.3,0-26.6,0.2-39.9C876.4,2056.5,877,2054.6,877.5,2051.9z"/>
<path class="st1" d="M634.2,2054c0,14.7,0.9,28.7-0.2,42.6c-3.1,39.3,3.4,77,15.9,114c9.2,27.3,14.8,55.3,14.3,84.3
	c-0.4,22.7-4.7,44.4-16.4,64.1c-2.7,4.6-5.7,9-9,13.2c-11.9,15.1-19.7,16-35.3,4.3c-10.4-7.8-17.5-18.1-22.5-30
	c-9.9-23.5-13.5-48.1-12.6-73.3c1.1-29.6,2.3-59.3,5-88.8c2.8-31.5,8.4-62.7,17.9-93c4.3-13.5,12-24.4,23.7-32.4
	C620.4,2055.4,626,2052.8,634.2,2054z"/>
<path class="st1" d="M1022,2317.4c3.4,5.9,1.9,10.7,0.4,15.4c-21.8,66.9-36.6,135.6-54.7,203.5c-6.2,23.4-5.5,46.8-1.9,70.4
	c0.4,2.9,0.7,5.7-0.5,9.5c-1.7-1.7-3.6-3.2-5.1-5.1c-3.8-4.6-7.1-9.7-11.2-14c-9.7-10.3-21.9-14.9-36.1-13.5
	c-7.2,0.7-14.4,1.7-22.9,2.7c0.8-4,1.1-7.6,2.2-10.8c9.1-26.3,9.1-52.9,3.7-79.9c-6.5-32.3-13-64.6-19.5-97c-0.4-1.9-0.5-3.9-1-7.4
	c4.2,1.1,7.6,1.7,10.8,2.8c8.9,3.1,17.1,1.5,24.9-3.2c12-7.3,21.3-17.2,27.2-29.9c6.5-14.1,5.2-15.1,21.8-15.3
	c6.6-0.1,13.2-1.8,19.8-2.7c2.6-0.3,5.2-0.5,9.4-0.8c-10.5,56.6-25.9,111.3-34.1,168.3c6-0.4,6.8-4.5,7.7-8c2.2-9,3.9-18.2,6.2-27.3
	c11-42.9,22-85.8,33.2-128.6C1005.3,2334.9,1010.9,2324.9,1022,2317.4z"/>
<path class="st1" d="M621.6,2587.3c-15.8-4.2-29.9-7.6-44.3-1.7c-13.7,5.6-23.3,16-33.6,26.4c0.5-4.1,1-8.3,1.6-12.4
	c3.8-26.2,0.6-51.9-5.2-77.3c-14.1-61.3-30.2-122.2-49.3-182.2c-2.4-7.5-3.9-15.3-6-23.7c5.3,0,7.5,3,9.8,5.5
	c7.6,8.3,12.4,17.9,15.1,28.9c12.4,49.7,25,99.4,37.5,149.2c1,3.8,1.5,7.7,7.4,10.7c-0.3-4.7-0.1-8.1-0.8-11.3
	c-8.4-40.8-16.9-81.5-25.4-122.2c-2.4-11.3-4.7-22.7-7.3-35.3c4.6,0.4,8.1,0.6,11.7,1c7.9,0.9,15.8,2.5,23.8,2.8
	c7,0.3,11,3.3,13.4,9.7c3.8,10.2,10.1,18.7,17.8,26.3c11.9,11.7,25.2,17.1,41.7,10.5c1.2-0.5,2.6-0.4,4.5-0.6
	c0.8,6.3-0.7,12-1.8,17.6c-6.4,32.7-12.9,65.3-19.2,98c-4,21-2.7,41.8,3.7,62.2C618.3,2574.7,619.6,2580.1,621.6,2587.3z"/>
<path class="st1" d="M948.4,2028.9c3.8,5.3,7.4,9.7,10.4,14.5c34.2,53.7,56.9,112,69.1,174.4c3.9,20,4,40.4,1.5,60.7
	c-3.1,24.9-30.4,45.3-55.1,41.3c-6.5-1-11.2-4.3-13-10.8c-1.1-4.2-2-8.4-2.3-12.7c-1.9-25.6-3-51.2-5.6-76.7
	c-3.1-31.1-7.3-62.2-11-93.2c-2.3-19.2-4.8-38.3-6.4-57.6c-0.7-7.9,0.3-16,1.4-23.9C938.3,2038.5,941.6,2033.2,948.4,2028.9z"/>
<path class="st1" d="M562,2028.6c9.1,6.2,12.9,14.8,12,24.9c-2.3,28.5-4.5,57.1-7.8,85.5c-5.4,46.3-11.9,92.4-13.4,139.1
	c-0.3,8-0.9,16-1.8,23.9c-1.6,13-7.5,17.9-20.6,18.1c-25.2,0.2-46.9-19-49.5-44.3c-3.3-32.6,1.5-64.4,10.2-95.7
	c14.6-52.7,38.4-101.3,67.6-147.4C559.6,2031.3,560.8,2030.1,562,2028.6z"/>
<path class="st1" d="M1000.3,1320.2c-2.5-2.8-5.3-5.5-7.4-8.5c-4-5.7-7.8-11.6-11.6-17.4c-16.3-24.6-38.5-40.9-67.2-48.4
	c-12.9-3.3-25.8-6.5-38.6-10c-10.3-2.8-11.5-4.8-8.5-14.7c2.4-8,5-15.9,7.9-23.6c1.5-4,3.5-8,5.9-11.5
	c11.2-16.2,24.1-20.9,43.2-16.3c18.7,4.6,32.5,16.1,44.1,30.8c9.4,11.9,15.8,25.5,19.2,40.2c5.2,22.3,10.1,44.7,14.8,67.2
	c0.8,3.6,0.1,7.5,0.1,11.3C1001.6,1319.6,1001,1319.9,1000.3,1320.2z"/>
<path class="st1" d="M507,1318.9c0.3-3.5,0.2-7.1,1-10.5c5.7-24.6,11.1-49.3,17.4-73.8c8-30.8,27-52.1,56.9-63.6
	c20.5-7.9,35.1-2.9,47.2,15.4c7.9,11.9,11.2,25.5,15,38.9c1.4,4.8-0.8,7.6-5.4,8.9c-11.2,3.1-22.3,6.9-33.7,9.2
	c-35.9,7.2-62.4,27-81.1,58c-1.9,3.1-3.5,6.5-5.8,9.3c-2.9,3.4-6.3,6.2-9.6,9.3C508.3,1319.7,507.7,1319.3,507,1318.9z"/>
<path class="st1" d="M918.3,1975.4c8.2,10,13.7,20.5,17.2,31.9c0.8,2.6,0,6.1-1.1,8.7c-5.6,13.1-11.5,26.1-18,40.4
	c-8.2-6.8-15.8-13-23.2-19.4c-3.4-2.9-2.4-6.5-0.6-10c4.6-8.9,9.1-17.7,13.6-26.6C910.1,1992.5,913.9,1984.5,918.3,1975.4z"/>
<path class="st1" d="M591.5,1973.6c9.6,19.7,18.1,37,26.6,54.3c2.1,4.2,1.2,7.7-2.4,10.6c-6.9,5.7-13.9,11.3-22.1,18
	c-6.4-15.2-12.6-29.4-18.2-43.8c-1.1-2.8-0.6-6.9,0.7-9.7C580.5,1993.8,585.5,1984.9,591.5,1973.6z"/>
<path class="st1" d="M977.5,1189.2c-13.5-10.8-27-21.6-41.3-33.2c9.4-11.1,18.5-21.9,28.9-34.2c7,22.5,12.2,43.7,14.7,65.5
	C979,1188,978.2,1188.6,977.5,1189.2z"/>
<path class="st1" d="M545.3,1121.5c10,12,18.9,22.7,28.7,34.4c-13.4,10.8-26.5,21.3-39.5,31.8c-0.7-0.4-1.4-0.9-2.1-1.3
	C533.8,1164.8,538.8,1143.9,545.3,1121.5z"/>
<path class="st1" d="M566.5,2203.7c0-7.4,0.1-14.9,0.1-22.3c0,0-0.2-0.2-0.2-0.3C566.4,2188.5,566.5,2196,566.5,2203.7
	C566.5,2203.6,566.5,2203.7,566.5,2203.7z"/>
<path class="st1" d="M840,465.5c-3.5-15.4-7.6-30.4-10.2-45.8c-5.6-33.5-26.9-50.7-58.3-57.7c-27.4-6.1-50.5,3-70.6,21.3
	c-7.8,7.2-12.5,16.4-14.8,26.7c-3.7,16.6-7.3,33.1-11,49.7c-0.4,1.6-1,3.1-1.5,4.6c-8.5-0.7-9.6-1.1-10.7-8.6
	c-2.2-14.1-3.8-28.4-5.7-42.6c-0.3-2.3-0.3-4.7-0.7-7c-1.4-8.8-1.3-9-10-10.8c-7.1-1.5-12-5.3-15-11.9c-4.6-10-9.4-19.9-13.7-30
	c-6.5-15.1-2.6-23.1,13-27.9c11.5-3.5,12.1-4.4,11.5-17.1c-1-25.2,1.2-49.8,11.3-73.4c24.2-56.8,73.7-72.7,114.9-68.8
	c49.4,4.7,89.4,42.3,98.5,92.3c2.3,12.7,2.9,25.8,3.7,38.7c0.5,8.6,0.1,17.2,0.1,26.3c3.5,0.6,6.4,1.4,9.3,1.6
	c6.9,0.6,11.6,4.7,16,9.3c3.9,4.2,4.2,9,1.9,13.9c-5.8,12.7-11.8,25.3-17.8,38c-2.5,5.3-7.3,7.4-12.6,8.8
	c-9.5,2.5-9.5,2.6-10.7,12.5c-1.9,15.2-3.9,30.4-5.7,45.6C850.4,460.1,848,464.8,840,465.5z"/>
<path class="st1" d="M998.9,843.9c1.1,31.5-1.4,62.6-11.7,92.7c-6.4,18.8-15.8,36-29,50.9c-14.4,16.4-32.2,26.7-54.2,28.7
	c-11.6,1-22.5-1.6-32.6-7.4c-29-16.9-52.4-39.9-72-66.8c-5.4-7.5-5.7-15.5-1.5-23.5c1.7-3.2,3.7-6.3,5.7-9.4
	c26.6-40.7,53.1-81.5,80-122c15.3-23.1,26.1-47.8,31.5-75c3.2-16.2,6.8-17.5,20.2-7.4c39.1,29.4,60.5,68.3,62.5,117.5
	C998,829.3,998.5,836.6,998.9,843.9z"/>
<path class="st1" d="M554.4,603.4c6.3-7,14.3-7.1,21-8.7c14.1-3.3,27.4-8.1,40.3-14.5c17.8-8.8,37.1-12.7,56.4-15.9
	c15.7-2.6,31.8-2.8,47.7-4.3c8-0.8,13.5,3,17.8,8.9c6.8,9.5,10.1,20.1,10.1,31.8c-0.1,66-0.2,132,0,198c0.1,42.7,0.9,85.3,1.2,127.9
	c0,5.3-0.7,10.5-2.7,16.3c-1.1-1.6-2.6-3.1-3.3-4.9c-8.6-21.1-20.4-40.4-33.5-58.9c-21.7-30.8-43.3-61.6-65.1-92.3
	c-21.5-30.2-34-63.8-40.7-100c-2-10.8-4.9-21.4-7.9-32c-5.6-19.6-16.4-35.5-34.3-46.1C559,607.4,557.1,605.5,554.4,603.4z"/>
<path class="st1" d="M958.9,602.6c-3.4,2.8-5.2,4.7-7.4,6c-18.3,10.7-29.3,26.9-34.7,47c-4.2,15.7-7.7,31.7-11.3,47.6
	c-7.3,31.9-20.8,60.9-39.9,87.6c-23.5,32.7-46.9,65.6-69.4,99.1c-10,14.9-17.4,31.4-26,47.2c-1.1,2-2.1,4-3.8,7.3
	c-2.9-6.1-2.9-11.2-2.8-16.3c0.4-40.6,1.1-81.3,1.3-121.9c0.2-68.3,0.1-136.7,0-205c0-11.4,3-21.7,9.3-31.1
	c4.6-6.7,10.5-10.5,19.3-10c24,1.3,47.7,3.3,71.1,9.4c13.3,3.4,25.7,8.4,38.4,13.6c14.7,6,30.3,10,45.4,15
	C951.5,599,954.5,600.6,958.9,602.6z"/>
<path class="st1" d="M1086.7,1064c3.3,3.2,5.9,5.2,7.9,7.7c13,16.1,25.8,32.2,38.7,48.4c9.9,12.4,16.9,26.3,21.9,41.3
	c16.1,47.6,32.1,95.3,48.1,142.9c2.2,6.5,4.8,12.9,9.2,19.4c0.5-1.9,1.7-3.9,1.3-5.6c-1-4.5-2.6-8.9-4.1-13.4
	c-15.4-48.2-31-96.3-46.3-144.6c-5.2-16.3-12.4-31.6-21.9-45.8c-4.6-6.9-8.9-14.1-12.8-21.4c-4.4-8.2-3.2-11.5,4.8-16.4
	c2.3-1.4,4.7-2.4,7-3.8c6.7-4,12.5-2.9,18.3,2.1c11.4,9.8,22.9,19.4,34.5,28.9c37.9,31.1,54.9,71.6,55.3,120.1
	c0.3,27.6,1.2,55.3,2.1,82.9c0.3,8.3,1.6,16.6,2.7,24.8c0.4,3.5,0.7,7.4,5.7,8.4c3.6-2.7,2.3-6.6,2.2-10c-0.2-25.7-0.5-51.3-0.5-77
	c0-7.5,1-15,1.7-24.2c2.6,2.3,4.1,3,4.4,4c18.4,53.5,36.7,106.9,55.3,161.5c-3.5,0.7-6,1.9-8.3,1.7c-19.9-1.5-38,4.5-56,12.2
	c-16.9,7.2-16.6,12-27.5-9.6c-25.7-50.8-51.7-101.5-77.3-152.4c-7-14-12.8-28.5-19-42.9c-14.8-34.2-29.3-68.6-44.2-102.7
	C1085.1,1089.3,1081.8,1078.1,1086.7,1064z"/>
<path class="st1" d="M744.4,1377.7c-1.6-2.5-3.3-4.9-4.9-7.4c-6.1-10.3-13.6-20-17.9-31c-13.5-34-26.1-68.4-38.3-102.9
	c-8.1-22.8-18.8-44-32-64.2c-5.7-8.7-13.5-14.4-23-18.4c-9.6-4-10.2-4.8-9.3-14.9c4.1-47,19.1-89.7,50.7-125.6
	c15.2-17.2,30.6-34.3,46.1-51.3c10.5-11.5,14-10.8,20,3.2c7.4,17,11.3,34.7,11.3,53.3c0.1,59.3,0.4,118.6,0.7,177.9
	c0.3,55,0.7,109.9,1,164.9c0,4.9-0.5,9.7-0.8,14.6C746.8,1376.5,745.6,1377.1,744.4,1377.7z"/>
<path class="st1" d="M763.3,1376.1c-0.2-3.5-0.6-7.1-0.6-10.6c0.4-110.9,0.8-221.8,1.2-332.6c0.1-23.5,2.4-46.5,11.7-68.4
	c5.5-12.9,9.4-14.1,18.6-3.7c19.2,21.7,38.3,43.4,57.1,65.5c21.5,25.3,32.7,55.3,37.9,87.8c1.4,8.5,2.1,17.2,3,25.8
	c0.8,7.8,0,9.7-6.9,12.3c-13.3,5.2-22.8,14.6-30.6,26.1c-11.3,16.7-18.9,35.1-25.5,54c-9.3,26.7-18.5,53.4-27.9,80.1
	c-7.3,20.9-18.1,40-30.8,58c-1.5,2.1-3.3,4.1-5,6.1C764.7,1376.4,764,1376.2,763.3,1376.1z"/>
<path class="st1" d="M1365.9,1533.9c-7.6,4.6-7.7,4.7-4.2,11.7c11.5,22.9,23.2,45.7,34.9,68.6c2.4,4.7,5,9.4,7,14.4
	c1.2,3,2.1,6.5,1.8,9.6c-0.5,7.2-7.8,10.4-12.8,5.3c-4.8-4.9-8.9-10.8-12.1-16.9c-10.5-20-20.5-40.4-30.7-60.6
	c-1.8-3.5-3.7-6.9-5.5-10.3c-7.8,2.8-8.3,3.5-6.6,8.7c0.7,2.2,1.9,4.3,2.8,6.4c9.2,19.6,18.4,39.2,27.6,58.8
	c0.8,1.8,1.8,3.6,2.5,5.4c1.3,3.3,3.5,6.9-0.3,10c-2.7,2.3-8.6,1.6-11.7-2c-4.1-4.7-8.1-9.8-10.8-15.4c-8.4-17-16.2-34.3-24.3-51.5
	c-0.8-1.8-1.8-3.5-2.7-5.3c-9.6,4.7-10.6,6.8-6.6,15.9c3.7,8.6,7.7,17,11.5,25.5c1.2,2.7,2.2,5.4,3.2,8c-4.5,3.1-7.6,1.4-9.9-1.8
	c-3.3-4.6-6.6-9.2-9.3-14.2c-13.3-23.8-26.4-47.8-39.7-71.6c-10.4-18.8-15.2-38.9-14.6-60.4c0.3-10.3,0-20.7-0.6-31
	c-0.5-8.4,2.5-14.1,10.4-17.2c10.8-4.3,21.2-9.8,32.3-13.1c19.8-5.9,38.9-2.4,56.8,7.9c13.8,7.9,25.3,18.4,34.8,31.1
	c15.8,20.8,34.5,37.9,59,47.8c0.3,0.1,0.6,0.2,0.9,0.4c5.4,2.9,6.1,6.6,2,11c-3.9,4.3-9.2,5.6-14.6,5c-17.6-1.9-35.1-4.1-50.3-14.3
	c-3.5-2.4-6.3-3-9.9-0.6c-3.9,2.6-5.6,5.5-3.3,10c2,3.8,3.8,7.8,5.8,11.6c12,23.7,24.2,47.4,36,71.3c1.7,3.5,2.6,7.6,2.9,11.4
	c0.2,3.7-3.2,5.6-6.1,3.5c-3.1-2.3-6-5.3-7.9-8.6c-10.3-17.5-20.3-35.2-30.4-52.8C1370.8,1541.9,1368.5,1538.3,1365.9,1533.9z"/>
<path class="st1" d="M1093.8,790.3c-33.1-1.8-61-12.7-84-35.2c-14.5-14.3-28.7-28.8-43.6-42.6c-10.5-9.7-21.7-18.7-33-27.5
	c-6.3-4.9-7.5-10.8-5.6-17.7c5.9-22.2,17.8-40,38.5-51.1c9.7-5.1,19.6-6.1,29.9-2.4c27.6,9.8,52.9,23.6,75.2,42.6
	c26.6,22.7,40.6,52.3,45.8,86.4c1.8,11.5,3.1,23.1,4.2,34.7c0.8,8.8-0.3,9.8-8.8,10.9C1105.8,789.2,1099.1,789.8,1093.8,790.3z"/>
<path class="st1" d="M1033.8,961.8c5.4,3.9,10.1,7.4,14.9,10.7c12.5,8.4,20.9,7.8,32.4-2.1c7.8-6.8,13-15.2,14.3-25.5
	c1.1-8.9,1.3-17.9,1.9-26.8c0.3-3.9,0.5-7.7,0.8-13.1c5.2,2.3,9.5,3.8,13.5,6c12.7,6.8,25.6,12.8,40,14.8c5.8,0.8,8.4,4.7,10.4,9.5
	c6.6,15.8,10.9,32.2,10.6,49.4c-0.2,14.6-1,29.3-2,43.9c-0.8,11.4-2.8,13.7-13.7,16.5c-11.6,2.9-23.2,6.1-35,7.9
	c-20.5,3.1-38.2-3.3-49.4-21c-13.8-21.6-25.9-44.2-38.6-66.4C1033.4,964.8,1033.8,963.7,1033.8,961.8z"/>
<path class="st1" d="M768,376.6c19.8-0.2,28.2,7.6,29.4,26.5c1.9,30.7,6.5,60.9,14.5,90.6c1.3,4.9,1.9,10.4,8.1,15
	c-3.7-35.5-11-69-7.3-103.9c1.9,2.5,4.5,4.8,5.5,7.7c3.3,9.4,7.4,18.8,8.7,28.5c2.9,22.1,5,44.4,6.2,66.7
	c1.2,23.7,10.9,41.4,32.2,52.5c1.8,0.9,3.4,2.1,5,3.3c0.4,0.3,0.6,1.1,1.2,2.4c-1.8,0-3.3,0.3-4.7,0c-24.7-6-49.7-9.8-75-11.1
	c-7.1-0.4-11.3-3.5-14.4-10.1c-7.9-17.4-10.2-35.8-11.7-54.4c-3-36.6-1.4-73.2,1.6-109.8C767.2,379.1,767.6,378.2,768,376.6z"/>
<path class="st1" d="M746.1,377.1c0.6,7.4,1.4,15,1.8,22.5c1.9,37.6,3.4,75.3-2.7,112.7c-1.7,10.4-5.1,20.6-8.4,30.7
	c-2.4,7.2-7.8,11.1-15.9,11.5c-25.3,1.3-50.3,5.2-75,11.1c-1.2,0.3-2.6,0.2-4.7,0.4c1.2-4.1,4.4-5.2,7-6.5
	c19.8-10.1,30.4-25.8,31.7-48.3c1.1-19.9,3.1-39.9,5.4-59.7c1.2-10.5,3.6-21,6.4-31.2c1.3-4.8,4.7-9.1,7.1-13.6
	c0.8,0.2,1.7,0.4,2.5,0.5c0.3,5.4,1.2,10.9,0.8,16.2c-1.7,20.6-3.8,41.1-5.9,61.6c-0.8,7.8-2.1,15.6-3.2,23.5
	c0.7,0.2,1.4,0.5,2.1,0.7c1.9-4.4,4.3-8.6,5.6-13.1c7.7-27.3,12.8-55.1,14.5-83.5c0.3-4.6,0.5-9.3,1.3-13.9
	C719.3,382.4,728.2,375.8,746.1,377.1z"/>
<path class="st1" d="M1081.5,921.6c-1.4,8.8-2.6,20.5-5.4,31.7c-3.3,13.3-12.8,16.1-23.1,6.9c-26.9-24-44.2-53.3-45.9-90.1
	c-1.1-24.6-0.8-49.3-0.8-74c0-5.2-0.6-11.4,5.7-13.8c7-2.6,10.3,3.3,13.5,7.7c9.7,13.1,19.7,26.1,28.5,39.8
	C1071.5,856.8,1078.6,887.2,1081.5,921.6z"/>
<path class="st1" d="M912.1,1149.1c-5.9-22.7-10.6-43.2-16.7-63.2c-6-19.7-13.4-39-20.4-59c1.9,0.1,4,0.2,6,0.3
	c13.3,0.5,26.6,1.8,39.8,1.3c18.3-0.7,31.9-10.5,41.9-25.5c4.6-6.9,8.7-14.2,13.1-21.3c1.7-2.7,3.8-5.2,7.4-7.3
	c0,3.1,0.4,6.3-0.1,9.3c-5.4,38.1-13.7,75.4-30.4,110.3c-6.1,12.8-14,24.9-22.2,36.6C925.9,1137.3,919,1142.3,912.1,1149.1z"/>
<path class="st1" d="M1052.9,796.7c6.6,1.2,12.1,2.6,17.6,3c16.9,1,33.8,2,50.7,2.2c6.5,0.1,10.7,1.9,13.4,7.9
	c10.4,22.7,20.4,45.5,23.7,70.6c0.8,6.5,1.3,13.3,0.6,19.9c-1.4,13-10.7,17.8-22.1,11.2c-22.7-13.3-42.3-30.2-55-53.6
	c-9.5-17.5-17.8-35.7-26.5-53.6C1054.1,802.3,1053.8,800,1052.9,796.7z"/>
<path class="st1" d="M1240.5,1142.3c-3.4-3.6-6.1-5.8-8-8.6c-14.1-20.7-29.5-40.3-46.7-58.4c-6.2-6.5-8.8-13.9-6.8-22.8
	c2.4-10.6,4.6-21.2,7.1-32.4C1208.4,1036.3,1239.5,1106.2,1240.5,1142.3z"/>
<path class="st1" d="M510.6,856.7c2.2-21.3,3.2-42.3,6.9-62.9c7-39.5,29.7-69.1,61.9-91.9c1.6-1.1,3.4-2,5.2-2.9
	c4.2-1.9,7.2-0.5,8.8,3.6c1.3,3.4,2.4,6.9,3.1,10.5c5.9,29.5,18.7,56,35.2,80.9c25,37.7,49.9,75.5,74.9,113.3
	c1.7,2.5,3.1,5.1,4.8,7.6c7.3,10,6.6,19.4-1.1,29.1c-12.6,16-25.8,31.4-41.5,44.4c-6.7,5.5-13.5,10.9-20.9,15.4
	c-31,19.1-63.6,15.2-89.2-10.6c-25.4-25.5-38.8-56.9-43.4-92.2C513.5,886.1,512.2,871.2,510.6,856.7z"/>
<path class="st1" d="M292.9,1323.9c7.6-2.9,8.1-9.1,9.8-14.2c9-26.5,17.7-53.1,26.5-79.6c6-18,11.9-36,17.8-54.1
	c9.5-29.2,24-55.6,44.6-78.5c6.7-7.4,12.7-15.4,19.1-23.1c3-3.5,6.1-6.9,9.7-10.9c4.2,4.6,4.4,9.8,3.6,14.3
	c-1.4,7.8-3,15.9-6.4,22.9c-15.5,31.8-28.2,64.7-41.7,97.3c-13.7,33.2-29.1,65.8-45,98c-17.6,35.5-36.5,70.4-54.9,105.5
	c-7.6,14.5-8,14.6-22.9,8.3c-7.1-3-14.1-6-21.3-8.6c-10.7-3.9-21.9-5.8-33.3-5.3c-4,0.2-7.9,0-13.4,0c1.4-4.8,2.2-8.8,3.6-12.7
	c13.1-37.4,26.4-74.7,39.4-112.2c3.6-10.4,6.5-21,9.7-31.5c0.9-3,2.1-6,3.5-9.8c5.9,4,5.1,9.2,5.2,13.9c0.2,27.3,0.3,54.7,0.4,82
	c0,4.5,0.4,9.1,0.6,13.3c4.8,1.2,5.7-1.4,6.1-4.1c1.2-7.6,3-15.1,3.3-22.7c1.2-25.6,1.8-51.2,2.9-76.8c0.7-16,0.4-32.1,2.8-47.8
	c5-32.4,23.3-57.7,46.6-79.5c11.9-11.1,24.7-21.3,37.4-31.6c9.5-7.8,20.6-7.6,29.2-0.2c5.2,4.5,6.5,8.6,3.7,15
	c-2.2,5.2-4.8,10.3-8.1,14.8c-11.5,15.8-20.1,33-26.1,51.5c-16.8,51.6-33.4,103.3-50.1,154.9
	C294.2,1315.8,293.8,1319.4,292.9,1323.9z"/>
<path class="st1" d="M412.3,790.3c-4.1-0.5-10-1.1-16-1.9c-9.4-1.3-10.9-2.4-10-12.2c1.3-14.2,2.6-28.6,5.7-42.5
	c10.6-47,37.1-81.8,81.4-102.2c12.1-5.6,24.1-11.3,36.1-16.9c10.4-4.8,20.4-4.5,30.6,0.9c20.2,10.7,33.6,26.8,39.8,48.8
	c3.4,11.9,2.1,15.8-8.2,22.7c-19,12.7-34.9,28.7-50.9,44.8c-9.1,9.2-18.4,18.3-27.8,27.3C471.1,780,444.2,789,412.3,790.3z"/>
<path class="st1" d="M411.2,904c0,12.4-0.2,23,0.1,33.6c0.4,14.5,6.4,26.3,18.2,35c9.8,7.2,17.2,7.5,27.6,1.1
	c4.8-2.9,9.4-6.2,15.9-10.5c-1.3,4-1.7,6.5-2.8,8.5c-10.5,18.5-20.8,37.2-31.7,55.5c-8.6,14.5-21.2,23.8-38.2,26
	c-4.5,0.6-9.4,0.7-13.9-0.2c-13-2.7-25.9-6.1-38.9-9c-6.1-1.3-9.1-5-10-10.9c-4.9-31-4.5-61.6,5.7-91.7c3.3-9.7,8.5-15.1,19.2-17.5
	c11.5-2.6,22.3-8.3,33.3-12.9C400.5,909.2,405.1,906.8,411.2,904z"/>
<path class="st1" d="M502.6,829.9c-1.7,20.2-2.4,40.5-5.5,60.5c-4.7,30.1-22.6,52.8-45.3,71.8c-7.6,6.3-14.8,4.6-18.3-4.7
	c-2.9-7.7-5.1-16-5.6-24.1c-2.4-37.2,5.3-72.2,26.1-103.6c9-13.6,18.8-26.7,28.2-40c0.4-0.5,0.8-1.1,1.2-1.6
	c3.4-3.9,7.5-7.5,12.8-5.6c4.7,1.7,4.8,6.9,4.9,11.2c0.2,12,0.1,24,0.1,36C501.6,829.8,502.1,829.8,502.6,829.9z"/>
<path class="st1" d="M639,1025.1c-18.6,40.2-30.7,80.2-38.6,123.2c-3.5-2.5-6.6-4.2-9.1-6.4c-10.2-8.8-17.8-19.7-24.4-31.4
	c-17.3-30.5-27.4-63.4-33.6-97.7c-1.8-10.1-3.2-20.4-4.7-30.6c-0.3-1.7,0-3.6,1.8-6.1c2.2,2.7,4.5,5.3,6.5,8.1
	c5.5,8,10.7,16.1,16.2,24c7.8,11.2,18.4,17.8,31.9,20.2c14,2.4,27.8,1.8,41.6-1.3C629.9,1026.5,633.1,1026.1,639,1025.1z"/>
<path class="st1" d="M454.3,797.3c-0.7,3.1-0.7,4.5-1.3,5.6c-10.5,21.1-20.6,42.5-32,63.1c-4.6,8.2-11.7,15.4-18.8,21.8
	c-9.1,8.2-19.3,15.3-29.1,22.7c-5.4,4.1-11.4,5.4-17.7,1.8c-6.3-3.7-8-9.5-7.4-16.2c1.8-19.9,5.1-39.6,13.4-58.1
	c4.2-9.4,7.9-19,12.1-28.5c3.1-6.9,5-8.4,12.3-7.1c18.5,3.1,36.5,0,54.5-3.2C444.5,798.4,448.7,798,454.3,797.3z"/>
<path class="st1" d="M270.1,1138.1c-3.2-29.7,24.8-94.9,50.4-117.9c0.9,2.1,2.2,3.9,2.6,5.9c2.1,9.7,4,19.5,5.9,29.3
	c1.1,5.8-0.3,11-4.1,15.8c-17.3,21.5-34.3,43.1-51.5,64.7C272.8,1136.6,271.8,1137,270.1,1138.1z"/>
<path class="st1" d="M163.7,1555.4c-3.5,6.8-6.8,12.9-10,19.1c-8.4,16.6-16.5,33.4-25.3,49.9c-3.4,6.4-8,12.2-12.4,18
	c-2.1,2.7-5.6,5-8.7,2.5c-2.2-1.8-4.4-5.6-4.1-8.2c0.7-5.5,2.3-11.1,4.8-16c11.2-22.7,22.8-45.2,34.2-67.7c1.7-3.3,3.2-6.6,4.8-9.9
	c2.3-4.7,0.5-7.5-4.8-9.6c-2.2,3.4-4.4,6.6-6.3,9.9c-10.7,18.4-21.3,36.9-31.9,55.4c-1.3,2.3-2.5,5-4.5,6.5
	c-1.8,1.4-5.4,2.7-6.9,1.8c-1.7-0.9-3-4.6-2.7-6.8c0.5-3.5,2.3-6.9,4-10.1c12.6-25,25.2-49.9,37.9-74.9c1.1-2.1,2.3-4.1,3.1-6.3
	c1.3-3.7,0.7-7.2-2.4-10c-3.3-2.9-6.7-2.6-10-0.3c-14.1,9.8-30.6,12.7-47,15.3c-11.6,1.8-15.9-0.8-22.2-12.2c3.3-1.9,6.4-4.3,10-5.8
	c21.1-9,37.9-23.3,51.6-41.4c9.1-12,19.4-22.8,31.9-31.5c23.4-16.3,48.4-19.6,74.9-9c8,3.2,15.7,7.2,23.6,10.8
	c5.5,2.5,8,6.6,7.9,12.6c-0.3,17.7-0.4,35.3-0.8,53c-0.1,3.6-0.6,7.4-2,10.7c-6.9,16.6-13.2,33.5-21.5,49.3
	c-11,20.9-23.7,40.9-35.6,61.3c-1.3,2.3-2.8,4.5-4.4,6.6c-2.4,3-5.2,4-9.8,0.8c2.4-5.4,4.8-11.1,7.4-16.7c2.5-5.4,5.3-10.8,7.7-16.2
	c4-9,3.5-10.1-6.6-15.4c-2.1,4.1-4.4,8.1-6.4,12.2c-7.1,15-13.9,30.2-21.4,45.1c-2.5,5-6,9.7-9.9,13.5c-2.6,2.5-6.8,3.3-10.5,4.9
	c-4.3-6.6-2.2-11.8,0.2-16.9c9.1-19.2,18.4-38.4,27.6-57.7c1.1-2.4,2.4-4.8,3.3-7.3C172.5,1558.9,172.1,1558.3,163.7,1555.4z"/>
<path class="st1" d="M181.4,1598.2c1.3-4.3,2.5-8.5,3.8-12.8c1.3,5.2-0.3,9.3-4,12.6C181.2,1598,181.4,1598.2,181.4,1598.2z"/>
</svg>
